<?xml version="1.0" encoding="utf-8"?>
<!-- Generator: Adobe Illustrator 17.1.0, SVG Export Plug-In . SVG Version: 6.00 Build 0)  -->
<!DOCTYPE svg PUBLIC "-//W3C//DTD SVG 1.1//EN" "http://www.w3.org/Graphics/SVG/1.1/DTD/svg11.dtd">
<svg version="1.1" id="Camada_1" xmlns="http://www.w3.org/2000/svg" xmlns:xlink="http://www.w3.org/1999/xlink" x="0px" y="0px"
	 viewBox="0 0 396.667 220.253" enable-background="new 0 0 396.667 220.253" xml:space="preserve" width="200" height="111">
<g>
	<path fill-rule="evenodd" clip-rule="evenodd" fill="#23303D" d="M328.661,38.406c2.285,0,4.143,1.858,4.143,4.145
		c0,2.284-1.857,4.142-4.143,4.142c-0.51,0-0.984-0.122-1.436-0.291c0.465-0.457,0.97-0.888,1.391-1.373
		c0.076-0.013,0.173-0.036,0.243-0.049c-0.315-0.392-1.037-1.15-1.432-1.44c-0.023,0.003-0.048,0.007-0.07,0.009
		c-0.013-0.013-0.031-0.031-0.044-0.044c-0.021,0.021-0.047,0.038-0.067,0.059c-0.812,0.076-1.636,0.197-2.464,0.315
		c-0.147-0.422-0.27-0.858-0.27-1.328C324.511,40.264,326.369,38.406,328.661,38.406z M302.784,55.671
		c0.083-0.067,0.156-0.143,0.239-0.207c0.013,0.043,0.021,0.087,0.033,0.131C302.968,55.618,302.872,55.649,302.784,55.671z
		 M298.467,55.168c0.416,0.87,0.836,1.739,1.252,2.612c0.047,0.139,0.094,0.278,0.139,0.417c1.111-0.072,2.362-0.245,3.678-0.473
		c0,0.006,0.005,0.011,0.005,0.018c0.008-0.003,0.017-0.005,0.03-0.005c0.654,2.479,1.394,4.985,2.315,7.662l0.045,0.14l0.018,0.041
		l-0.105,0.008l-0.396,0.037c-12.542,1.019-29.453-7.148-42.579-13.823l-0.495-0.25c0.731-0.387,1.365-0.817,1.786-1.278
		c4.384,0.562,8.204,2.744,11.739,3.707c3.724,1.008,5.009-4.571,1.853-6.603c0.005,0,0.005,0.002,0.008,0.004l0.119,0.08
		c8.221,1.036,16.612,2.512,24.333,4.615c0.021,0.097,0.047,0.191,0.068,0.29C300.959,53.242,299.673,54.163,298.467,55.168z
		 M264.474,44.427c0.169-0.096,0.371-0.157,0.564-0.229C264.845,44.267,264.643,44.333,264.474,44.427z M266.215,43.923
		c0.218-0.027,0.429-0.063,0.665-0.072C266.644,43.857,266.433,43.896,266.215,43.923z M267.72,43.87
		c0.239,0.011,0.475,0.024,0.72,0.048C268.195,43.894,267.959,43.883,267.72,43.87z M269.321,44.038
		c0.26,0.044,0.522,0.097,0.787,0.154C269.846,44.135,269.581,44.082,269.321,44.038z M270.969,44.387
		c0.327,0.086,0.646,0.188,0.967,0.288C271.616,44.575,271.296,44.474,270.969,44.387z M264.009,44.787
		c-0.135,0.12-0.261,0.243-0.366,0.389C263.749,45.03,263.874,44.906,264.009,44.787z M263.348,48.563
		c-0.932,0.626-1.899,1.221-2.954,1.692c-0.105,0.046-0.202,0.088-0.302,0.132l-0.798-0.404c-0.589-0.301-1.166-0.598-1.733-0.888
		c-0.029-0.014-0.056-0.025-0.081-0.039c0.82-1.263,1.934-2.539,2.808-3.462l2.959,0.284c0.022-0.07,0.075-0.115,0.101-0.181
		C263.05,46.413,262.988,47.325,263.348,48.563z M174.514,29.359c20.382-3.09,67.392,6.472,66.884,11.701
		c-0.081,0.777-0.366,1.77-0.628,2.585c-9.283-2.779-18.693-5.314-28.501-7.482c-1.287-0.284-2.576-0.563-3.884-0.834
		c-11.221-2.35-23.011-4.218-35.755-5.446c-0.025-0.003-0.053-0.004-0.078-0.007C173.037,29.665,173.758,29.471,174.514,29.359z
		 M309.761,63.777c-1.04,0.4-1.972,0.714-2.569,0.845c-0.798-2.386-1.412-4.811-1.971-7.247c0.4-0.084,0.773-0.145,1.183-0.241
		C307.718,59.277,308.933,61.596,309.761,63.777z M304.725,55.144c-0.05-0.252-0.114-0.504-0.164-0.757
		c0.005-0.006,0.013-0.01,0.022-0.017c0.16,0.225,0.319,0.446,0.483,0.681C304.944,55.088,304.844,55.111,304.725,55.144z
		 M313.166,49.67c2.55-1.096,5.062-1.989,7.451-2.699l-0.16,1.573c-1.714,0.99-3.538,1.902-5.404,2.749
		C314.431,50.742,313.795,50.207,313.166,49.67z"/>
	<g>
		<path fill="#A93825" d="M115.539,203.939c0,0.676-0.088,1.272-0.265,1.784c-0.174,0.514-0.405,0.955-0.691,1.328
			c-0.285,0.374-0.608,0.686-0.969,0.935c-0.359,0.247-0.72,0.449-1.087,0.596l2.684,5.694h-4.134l-2.462-5.258h-8.07v5.258h-3.869
			v-15.393h13.831c0.409,0,0.903,0.076,1.483,0.223c0.58,0.146,1.132,0.403,1.661,0.782c0.527,0.369,0.975,0.881,1.341,1.537
			C115.354,202.076,115.539,202.911,115.539,203.939z M111.667,203.939c0-0.366-0.063-0.662-0.196-0.888
			c-0.132-0.231-0.294-0.403-0.483-0.528c-0.191-0.126-0.385-0.212-0.582-0.253c-0.198-0.043-0.357-0.063-0.473-0.063h-9.389v3.492
			h9.389c0.088,0,0.227-0.025,0.418-0.076c0.189-0.051,0.385-0.142,0.583-0.278c0.196-0.129,0.369-0.311,0.516-0.538
			C111.595,204.581,111.667,204.29,111.667,203.939z"/>
		<path fill="#A93825" d="M119.935,214.275v-15.393h18.535v3.324h-14.666v2.77h12.907v2.988h-12.907v2.987h15.238v3.324H119.935z"/>
		<path fill="#A93825" d="M158.322,214.275l-11.125-10.749v10.749h-3.868v-15.393h3.868l11.125,10.754v-10.754h3.87v15.393H158.322z
			"/>
		<path fill="#A93825" d="M177.141,202.206v12.069h-3.846v-12.069h-6.928v-3.324h17.701v3.324H177.141z"/>
		<path fill="#A93825" d="M194.092,206.468c0,0.441-0.081,0.853-0.243,1.232c-0.161,0.381-0.381,0.714-0.669,1.004
			c-0.284,0.281-0.621,0.508-1.001,0.667c-0.381,0.161-0.79,0.239-1.232,0.239c-0.439,0-0.849-0.079-1.229-0.239
			c-0.383-0.159-0.717-0.387-1.003-0.667c-0.286-0.29-0.507-0.623-0.667-1.004c-0.162-0.379-0.244-0.791-0.244-1.232
			c0-0.437,0.083-0.849,0.244-1.227c0.16-0.384,0.382-0.719,0.667-1.005c0.286-0.286,0.62-0.509,1.003-0.669
			c0.38-0.159,0.79-0.243,1.229-0.243c0.442,0,0.851,0.084,1.232,0.243c0.38,0.159,0.717,0.383,1.001,0.669
			c0.288,0.286,0.507,0.621,0.669,1.005C194.011,205.619,194.092,206.031,194.092,206.468z"/>
		<path fill="#A93825" d="M215.572,214.275l-1.782-3.08h-10.84l-1.776,3.08h-4.113l8.841-15.393h4.945l8.839,15.393H215.572z
			 M208.385,201.765l-3.519,6.111h7.036L208.385,201.765z"/>
		<path fill="#A93825" d="M228.94,206.468c0,0.441-0.081,0.853-0.244,1.232c-0.159,0.381-0.382,0.714-0.668,1.004
			c-0.284,0.281-0.621,0.508-1,0.667c-0.382,0.161-0.793,0.239-1.235,0.239c-0.437,0-0.85-0.079-1.227-0.239
			c-0.384-0.159-0.714-0.387-1.002-0.667c-0.284-0.29-0.51-0.623-0.671-1.004c-0.159-0.379-0.242-0.791-0.242-1.232
			c0-0.437,0.083-0.849,0.242-1.227c0.161-0.384,0.388-0.719,0.671-1.005c0.288-0.286,0.618-0.509,1.002-0.669
			c0.377-0.159,0.79-0.243,1.227-0.243c0.442,0,0.853,0.084,1.235,0.243c0.379,0.159,0.716,0.383,1,0.669
			c0.287,0.286,0.509,0.621,0.668,1.005C228.86,205.619,228.94,206.031,228.94,206.468z"/>
		<path fill="#A93825" d="M252.839,210.229c-0.384,0.659-0.871,1.262-1.476,1.815c-0.602,0.547-1.304,1.03-2.11,1.438
			c-0.802,0.412-1.707,0.73-2.702,0.954c-0.996,0.23-2.089,0.344-3.274,0.344c-1.686,0-3.193-0.223-4.518-0.659
			c-1.328-0.442-2.451-1.035-3.365-1.783c-0.918-0.749-1.616-1.614-2.098-2.605c-0.483-0.989-0.727-2.044-0.727-3.157
			c0-1.114,0.244-2.164,0.727-3.156c0.482-0.987,1.18-1.853,2.098-2.602c0.915-0.747,2.038-1.341,3.365-1.782
			c1.325-0.44,2.833-0.659,4.518-0.659c1.143,0,2.197,0.105,3.178,0.32c0.975,0.21,1.853,0.512,2.646,0.899
			c0.792,0.391,1.489,0.845,2.091,1.365c0.6,0.521,1.095,1.089,1.496,1.702l-3.475,1.762c-0.219-0.371-0.518-0.711-0.892-1.035
			c-0.374-0.319-0.819-0.601-1.341-0.836c-0.521-0.232-1.104-0.421-1.761-0.558c-0.651-0.145-1.35-0.212-2.098-0.212
			c-1.083,0-2.034,0.126-2.844,0.387c-0.816,0.252-1.488,0.606-2.026,1.042c-0.534,0.442-0.936,0.949-1.206,1.53
			c-0.273,0.575-0.409,1.188-0.409,1.832c0,0.631,0.136,1.237,0.409,1.815c0.27,0.581,0.672,1.09,1.206,1.527
			c0.538,0.442,1.21,0.793,2.026,1.058c0.811,0.262,1.761,0.396,2.844,0.396c0.792,0,1.527-0.075,2.199-0.231
			c0.672-0.151,1.275-0.361,1.803-0.626c0.53-0.265,0.984-0.571,1.361-0.925c0.383-0.353,0.669-0.727,0.858-1.123L252.839,210.229z"
			/>
		<path fill="#A93825" d="M273.877,214.275l-1.783-3.08h-10.837l-1.778,3.08h-4.111l8.838-15.393h4.945l8.84,15.393H273.877z
			 M266.691,201.765l-3.519,6.111h7.037L266.691,201.765z"/>
		<path fill="#A93825" d="M300.262,203.939c0,0.676-0.088,1.272-0.265,1.784c-0.177,0.514-0.407,0.955-0.694,1.328
			c-0.284,0.374-0.609,0.686-0.966,0.935c-0.362,0.247-0.724,0.449-1.087,0.596l2.68,5.694h-4.135l-2.461-5.258h-8.067v5.258h-3.87
			v-15.393h13.826c0.411,0,0.907,0.076,1.487,0.223c0.577,0.146,1.131,0.403,1.66,0.782c0.525,0.369,0.975,0.881,1.341,1.537
			C300.078,202.076,300.262,202.911,300.262,203.939z M296.391,203.939c0-0.366-0.067-0.662-0.198-0.888
			c-0.135-0.231-0.293-0.403-0.482-0.528c-0.192-0.126-0.386-0.212-0.583-0.253c-0.199-0.043-0.358-0.063-0.478-0.063h-9.383v3.492
			h9.383c0.089,0,0.232-0.025,0.422-0.076c0.189-0.051,0.386-0.142,0.585-0.278c0.195-0.129,0.365-0.311,0.511-0.538
			C296.316,204.581,296.391,204.29,296.391,203.939z"/>
	</g>
	<g>
		<g>
			<g>
				<g>
					<path fill-rule="evenodd" clip-rule="evenodd" fill="#23303D" d="M374.858,132.066v11.823c0,6.741,1.965,19.496,1.965,19.496
						s-3.52-10.057-7.257-17.626l-6.741-13.692h-10.213c1.252-0.753,2.282-1.783,3.052-3.129c1.774-3.1,2.681-6.51,3.19-9.242
						c5.845-2.307,10.762-5.559,13.834-9.212c1.227-1.463,1.744-3.392,1.416-5.271l-0.559-3.255
						c-1.344-7.934-3.017-17.809-5.988-24.199c-0.476-1.017-1.205-1.896-2.123-2.545c-9.854-6.983-16.5-10.715-26.073-14.158
						l0.147-0.082l0.366-0.204c0.767-0.432,1.378-0.774,2.025-1.121l0.391-0.203c0.831-0.439,1.699-0.894,2.601-1.343
						c8.058-4.014,16.859-7.455,23.696-9.281c0.042-0.011,0.222-0.062,0.26-0.074l0.669-0.168l0.366-0.088
						c0.454-0.111,0.924-0.225,1.383-0.323c0.361-0.08,0.677-0.146,0.992-0.206c0.437-0.086,0.883-0.164,1.315-0.235l0.252-0.042
						l0.467-0.076c0.587-0.08,1.151-0.143,1.677-0.178c0.062,0,0.232,0,0.288-0.005c0.253-0.011,0.455-0.017,0.653-0.017
						l0.361,0.009c0.008,0,0.315,0.023,0.323,0.025c0.105,0.008,0.24,0.024,0.365,0.05c0.022,0.004,0.076,0.014,0.127,0.025
						c0.921,0.47,1.924,0.703,2.93,0.703c1.379,0,2.752-0.441,3.898-1.313c2.078-1.572,3.001-4.238,2.351-6.758
						c-2.51-9.703-8.167-22.807-13.761-31.868c-1.055-1.711-2.845-2.833-4.847-3.032c-0.104-0.013-0.227-0.022-0.346-0.026
						c-1.183-0.112-2.411-0.164-3.751-0.164c-0.55,0-1.101,0.009-1.656,0.025l-0.63,0.017c-1.79,0.073-3.74,0.262-5.767,0.559
						c-0.083,0.011-0.172,0.023-0.255,0.038V5.699c-0.031,0.007-0.061,0.011-0.089,0.017c-5.665,0.866-11.822,2.599-17.814,5.018
						c-0.034,0.015-0.073,0.03-0.107,0.044c-1.883,0.765-3.631,1.539-5.308,2.344c-0.013,0.006-0.025,0.013-0.043,0.019
						c-0.071,0.035-0.146,0.069-0.214,0.103v0.002c-0.034,0.017-0.067,0.034-0.102,0.05c-1.344,0.654-2.644,1.322-3.883,2.007
						c-1.432,0.788-2.661,1.509-3.811,2.237l-0.417,0.27c-0.944,0.609-1.812,1.198-2.63,1.788c-0.273,0.192-0.573,0.408-0.863,0.629
						c-0.874,0.655-1.7,1.313-2.437,1.957c-0.045,0.035-0.089,0.071-0.122,0.103c-1.256,1.078-2.049,2.597-2.214,4.244
						l-1.311,12.952c-0.955,0.288-1.904,0.599-2.85,0.932c-1.904-1.499-3.98-3.081-6.342-4.838c-2.502-1.856-5.192-3.596-7.999-5.17
						c-14.327-8.026-26.526-13.299-38.399-16.596c-13.302-3.692-26.608-4.276-38.036-4.536c-1.886-0.041-3.767-0.067-5.632-0.067
						c-13.763,0-24.425,1.431-33.552,4.506c-6.17,2.074-11.295,4.978-15.91,9.039c-2.039-0.199-4.081-0.375-6.118-0.523
						c-6.199-0.448-12.335-0.674-18.24-0.674c-21.893,0-43.106,3.056-66.762,9.614c-18.663,5.173-39.542,14.541-57.284,25.7
						c-1.369,0.861-2.723,1.735-4.052,2.617l-0.182,0.12c-1.398,0.917-2.386,2.342-2.755,3.973
						c-1.561,6.924-0.042,13.852,2.275,19.936c-1.797,0.822-3.135,2.433-3.597,4.39c-1.213,5.145,0.139,10.267,4.021,15.229
						c1.241,1.583,3.126,2.478,5.085,2.478c0.494,0,0.991-0.057,1.487-0.175c3.491-0.826,6.976-1.6,10.453-2.352
						c5.801,0.657,9.046,2.004,11.243,3.123c7.626,3.892,14.617,6.977,22.857,9.038c1.919,10.979,8.224,19.873,16.977,24.6
						l-13.638,48.644l-2.116-56.421H49.123l-13.794,24.062L21.95,132.066H4.836l-2.18,58.082H22.26l0.103-14.936
						c0.103-10.373-2.074-22.093-2.074-22.093s3.525,10.06,8.609,18.15l6.43,10.271l6.015-9.648
						c5.394-8.714,8.818-18.565,8.818-18.565s-1.972,12.549-1.869,21.162l0.103,15.659h19.076h0.528h20.009l1.452-9.439h12.964
						l1.555,9.439h20.53h0.007h20.426c15.246,0,28.314-2.698,28.314-29.04c0-6.131-0.748-10.923-2.028-14.751l5.652,0.239v43.552
						h38.377v-14.936h-18.67v-7.573h16.077v-13.794h-16.077v-6.426l0.655,0.027c0.465,0.021,0.947,0.031,1.43,0.031
						c1.546,0,3.103-0.11,4.628-0.33c0.236-0.033,0.458-0.107,0.694-0.145h9.705l0.486-3.502c1.261-0.682,2.485-1.436,3.662-2.278
						v48.926h19.913v-56.032c0.546,0.197,1.118,0.325,1.702,0.367l3.48,0.256v55.409h19.707v-20.745l3.315-0.416
						c1.658,2.387,2.181,5.291,2.698,9.335l1.454,11.826h17.936h2.6h17.931l1.454-9.439h12.963l1.56,9.439h20.53h0.003h18.976
						v-12.343c0-8.712-2.696-21.572-2.696-21.572s4.879,11.716,8.507,19.185l7.258,14.73h16.701v-58.082H374.858z M91.639,166.916
						l2.282-13.899c0.527-3.059,1.052-6.616,1.443-9.385l1.307,0.137c0.405,2.787,0.927,6.318,1.398,9.248l2.282,13.899H91.639z
						 M124.509,190.127l-12.797-45.939c4.75-0.922,9.089-3.181,12.797-6.442V190.127z M145.692,132.075
						c-0.25-0.004-0.501-0.01-0.75-0.01h-15.353c1.513-2.168,2.847-4.536,3.9-7.144c2.406-0.134,4.858-0.267,7.337-0.4
						C142.226,127.278,143.874,129.781,145.692,132.075z M145.563,175.939h-1.347v-29.768h1.451c6.119,0,7.987,1.449,7.987,14.937
						C153.655,174.073,151.581,175.939,145.563,175.939z M226.843,132.066c0.946-1.344,1.837-2.745,2.638-4.23
						c1.262,1.683,2.754,3.089,4.402,4.23H226.843z M262.648,157.892v-13.071h2.07c3.633,0,5.19,0.727,5.19,5.808
						C269.909,157.064,267.935,157.576,262.648,157.892z M289.677,184.352l-1.204-7.17c-1.244-7.573-3.216-11.511-7.052-13.065
						c3.836-1.351,8.191-4.67,8.191-14.836c0-15.037-9.436-17.215-23.129-17.215h-2.605c1.224-0.964,2.378-2.054,3.374-3.376
						c9.353,3.262,18.225,3.892,26.852,4.502c0.462,0.035,0.924,0.068,1.392,0.101c1.627,2.903,3.853,5.294,6.481,7.178
						L289.677,184.352z M312.214,166.916l2.282-13.899c0.4-2.325,0.798-4.932,1.144-7.272l1.983,0.58
						c0.324,2.213,0.685,4.602,1.021,6.692l2.284,13.899H312.214z M345.089,190.135l-12.071-43.331
						c4.678-1.611,8.863-4.844,12.071-9.228V190.135z"/>
					<g>
						<path fill-rule="evenodd" clip-rule="evenodd" fill="#23303D" d="M257.284,50.336c0.829-1.349,2.068-2.74,3.005-3.729
							l2.959,0.283c0.875-2.728,5.473-2.346,9.31-1.011c1.371,0.477,3.833,1.635,5.202,2.514l0.119,0.08
							c8.338,1.051,16.857,2.547,24.666,4.696c-0.613-2.99-1.258-5.936-1.702-8.962c-10.05-7.565-22.249-13.838-37.472-19.034
							c-2.379,7.288-4.418,15.695-9.63,23.388C254.864,49.113,256.044,49.708,257.284,50.336L257.284,50.336z M245.281,21.254
							c2.214,0.407,4.426,0.853,6.649,1.334c0.467,0.122,0.937,0.252,1.406,0.387c4.625,1.335,6.013,1.442,5.495,4.357l0.032-0.085
							c-0.281,0.916-0.572,1.832-0.843,2.751c-1.741,5.845-5.275,12.428-7.772,17.674c-3.094-0.981-6.472-1.742-9.582-2.673
							c0.281-0.851,0.644-2.044,0.732-2.927c0.508-5.229-46.503-14.792-66.884-11.7c-0.792,0.12-1.561,0.323-2.046,0.543
							c-0.897-0.083-1.797-0.167-2.704-0.247c14.001-14.761,42.95-12.764,64.977-10.606
							C238.541,20.431,241.969,20.753,245.281,21.254L245.281,21.254z M303.848,54.338c-0.585-2.9-0.95-6.268-1.59-9.156
							c5.519,4.405,10.153,9.072,14.772,15.815c-0.793,0.959-4.471,3.041-7.144,4.085C308.551,61.431,306.045,57.242,303.848,54.338
							z"/>
					</g>
					<path fill-rule="evenodd" clip-rule="evenodd" fill="#F4CF95" d="M256.037,35.183c-7.598-2.105-14.814-4.024-22.64-5.229
						c-20-3.072-45.622-6.026-63.42,0.749l-0.212-0.019c7.658-8.072,19.764-11.283,32.621-12.147
						c15.768-1.059,35.16-0.212,50.538,4.226c4.623,1.336,6.114,2.007,5.594,4.924l0.038-0.084c-0.283,0.916-0.571,1.833-0.846,2.75
						C257.239,31.947,256.662,33.567,256.037,35.183z"/>
					<g>
						<path fill-rule="evenodd" clip-rule="evenodd" fill="#23303D" d="M320.457,48.544l0.16-1.573
							c-2.389,0.71-4.901,1.603-7.451,2.699c0.63,0.538,1.266,1.073,1.887,1.623C316.918,50.446,318.743,49.533,320.457,48.544z"/>
						<path fill-rule="evenodd" clip-rule="evenodd" fill="#23303D" d="M208.385,35.328c1.308,0.271,2.597,0.55,3.884,0.834
							c9.808,2.168,19.219,4.703,28.501,7.482c0.262-0.815,0.547-1.808,0.628-2.585c0.442-4.527-34.738-12.304-57.418-12.302
							c-3.515,0-6.73,0.187-9.466,0.602c-0.756,0.113-1.477,0.306-1.962,0.517c0.024,0.003,0.052,0.004,0.078,0.007
							C185.374,31.11,197.164,32.979,208.385,35.328z"/>
						<path fill-rule="evenodd" clip-rule="evenodd" fill="#23303D" d="M309.761,63.777c-0.828-2.182-2.043-4.5-3.358-6.643
							c-0.409,0.096-0.782,0.157-1.183,0.241c0.559,2.436,1.173,4.86,1.971,7.247C307.79,64.492,308.721,64.178,309.761,63.777z"/>
						<path fill-rule="evenodd" clip-rule="evenodd" fill="#23303D" d="M327.245,43.564c0.021-0.021,0.046-0.038,0.067-0.059
							c0.013,0.013,0.031,0.031,0.044,0.044c0.022-0.002,0.047-0.006,0.07-0.009c0.395,0.29,1.116,1.047,1.432,1.44
							c-0.07,0.013-0.167,0.036-0.243,0.049c-0.421,0.485-0.926,0.916-1.391,1.373c0.452,0.169,0.927,0.291,1.436,0.291
							c2.285,0,4.143-1.858,4.143-4.142c0-2.287-1.857-4.145-4.143-4.145c-2.292,0-4.149,1.858-4.149,4.145
							c0,0.47,0.123,0.906,0.27,1.328C325.609,43.761,326.432,43.639,327.245,43.564z"/>
						<path fill-rule="evenodd" clip-rule="evenodd" fill="#23303D" d="M259.294,49.983l0.798,0.404
							c0.1-0.044,0.196-0.087,0.302-0.132c1.056-0.471,2.022-1.066,2.954-1.692c-0.36-1.231-0.298-2.142-0.004-2.856
							c-0.024,0.06-0.075,0.106-0.097,0.171l-2.959-0.284c-0.874,0.923-1.987,2.199-2.808,3.462
							c0.025,0.014,0.052,0.025,0.081,0.039C258.128,49.385,258.706,49.681,259.294,49.983z"/>
						<path fill-rule="evenodd" clip-rule="evenodd" fill="#23303D" d="M305.066,55.052c-0.164-0.235-0.323-0.456-0.483-0.681
							c-0.009,0.007-0.017,0.011-0.022,0.017c0.05,0.252,0.114,0.505,0.164,0.757C304.844,55.111,304.944,55.088,305.066,55.052z"/>
						<path fill-rule="evenodd" clip-rule="evenodd" fill="#23303D" d="M262.869,51.799c12.375,6.293,28.11,13.908,40.377,13.908
							c0.747,0,1.484-0.027,2.202-0.085l0.396-0.037l0.105-0.008l-0.018-0.041l-0.045-0.14c-0.922-2.677-1.661-5.183-2.315-7.662
							c-0.013,0-0.022,0.002-0.03,0.005c0-0.007-0.005-0.012-0.005-0.018c-1.315,0.229-2.566,0.401-3.678,0.473
							c-0.045-0.139-0.092-0.278-0.139-0.417c-0.416-0.873-0.836-1.742-1.252-2.612c1.206-1.005,2.492-1.925,3.812-2.803
							c-0.021-0.099-0.047-0.193-0.068-0.29c-7.721-2.104-16.112-3.58-24.333-4.615l-0.119-0.08
							c-0.003-0.002-0.003-0.004-0.008-0.004c2.9,1.866,2.053,6.722-0.992,6.722c-0.268,0-0.558-0.038-0.86-0.12
							c-3.535-0.963-7.355-3.146-11.739-3.707c-0.421,0.461-1.055,0.891-1.786,1.278L262.869,51.799z M292.113,56.312
							c0.071,0.386,0.177,0.768,0.32,1.142c-2.329-0.667-4.702-1.483-7.057-2.385C287.706,55.453,289.953,55.87,292.113,56.312z"/>
						<path fill-rule="evenodd" clip-rule="evenodd" fill="#23303D" d="M303.023,55.464c-0.083,0.064-0.156,0.14-0.239,0.207
							c0.088-0.023,0.185-0.053,0.272-0.076C303.043,55.551,303.036,55.507,303.023,55.464z"/>
					</g>
					<path fill-rule="evenodd" clip-rule="evenodd" fill="#FFFFFF" d="M330.17,103.329c7.908,0.751,13.241,9.412,11.9,19.347
						c-1.336,9.932-8.834,17.378-16.742,16.626c-7.911-0.753-13.24-9.419-11.904-19.35
						C314.759,110.024,322.259,102.576,330.17,103.329L330.17,103.329z M329.807,106.02c-6.397-0.61-12.485,5.581-13.595,13.825
						c-1.11,8.237,3.18,15.411,9.576,16.02c6.396,0.605,12.487-5.582,13.598-13.822C340.496,113.803,336.205,106.627,329.807,106.02
						z"/>
					<path fill-rule="evenodd" clip-rule="evenodd" fill="#FFFFFF" d="M191.998,69.529c14.803-2.128,28.946,11.006,31.579,29.33
						c2.632,18.325-7.24,34.913-22.042,37.04c-14.805,2.121-28.949-11.011-31.581-29.336
						C167.321,88.241,177.192,71.655,191.998,69.529L191.998,69.529z M192.71,74.492c-11.975,1.721-19.914,15.443-17.733,30.646
						c2.186,15.206,13.671,26.142,25.646,24.417c11.973-1.722,19.917-15.444,17.736-30.647
						C216.172,83.704,204.69,72.771,192.71,74.492z"/>
					<radialGradient id="SVGID_1_" cx="192.1643" cy="72.363" r="130.2498" gradientUnits="userSpaceOnUse">
						<stop  offset="0" style="stop-color:#FEBF2A"/>
						<stop  offset="0.5359" style="stop-color:#F47524"/>
						<stop  offset="1" style="stop-color:#E25725"/>
					</radialGradient>
					<path fill-rule="evenodd" clip-rule="evenodd" fill="url(#SVGID_1_)" d="M80.492,112.353
						c22.668,2.212,54.067,2.869,79.698-1.972c-1.184-15.701,2.591-31.119,8.591-38.789c14.308-18.292,48.879-12.94,57.954,10.509
						c2.741,7.08,4.997,21.789,1.972,30.621c30.789,1.042,60.959,2.609,83.35,7.976c2.425-10.019,4.521-17.962,10.793-20.851
						c9.892-4.558,19.322-0.292,23.076,6.573c2.572,4.696,1.673,17.375,0.979,21.632c0.954-0.004,2.42-0.021,3.155-1.306
						c2.198-3.847,2.713-8.746,2.976-10.849c6.499-1.954,11.853-5.155,14.71-8.556c-1.34-7.634-3.029-19.371-6.043-25.847
						c-12.129-8.595-18.865-11.926-34.059-16.429c-9.025-10.243-15.732-15.823-25.797-23.293c-2.229-1.657-4.646-3.233-7.305-4.725
						c-11.967-6.704-24.119-12.437-36.973-16.006c-12.008-3.333-24.09-4.022-36.455-4.301c-13.117-0.296-25.695,0.302-36.977,4.102
						c-6.123,2.059-11.032,4.976-15.678,9.623c-0.779-0.08-1.551-0.156-2.324-0.229l0.326,0.045
						c-2.292-0.233-4.587-0.435-6.88-0.601c-28.198-2.034-53.499,0.595-82.809,8.72c-18.721,5.191-38.752,14.366-55.572,24.943
						c-1.326,0.834-2.635,1.68-3.921,2.532l-0.208,0.138c-2.415,10.691,4.654,22.225,9.302,31.291
						c8.86,0.364,14.179,2.064,18.296,4.16C57.522,108.026,66.167,110.956,80.492,112.353L80.492,112.353z M260.092,51.4
						l-0.798-0.403c-0.589-0.303-1.166-0.6-1.733-0.89l0,0c-1.235-0.626-2.421-1.223-3.543-1.774
						c5.211-7.696,7.337-15.488,9.72-22.776c15.22,5.199,26.895,11.107,36.939,18.673l0.092,0.607c0.438,2.944,0.9,5.63,1.435,8.217
						c0.92,4.467,2.059,8.643,3.682,13.355l0.045,0.142l0.018,0.04l-0.105,0.008l-0.396,0.036l-0.448,0.229l0.448-0.229
						c-12.542,1.019-29.453-7.147-42.579-13.823l-0.495-0.249c0.731-0.387,1.365-0.819,1.786-1.278
						c4.384,0.56,8.204,2.744,11.739,3.707c3.729,1.011,5.014-4.583,1.845-6.611c-1.37-0.878-3.831-2.036-5.207-2.513
						c-4.804-1.671-10.81-1.849-9.188,3.708c-0.932,0.626-1.899,1.222-2.954,1.692C260.289,51.314,260.192,51.356,260.092,51.4
						L260.092,51.4z M302.701,45.839l0.214,0.125c5.426,4.352,9.232,8.459,13.802,15.132c-0.794,0.961-4.203,2.62-6.875,3.664
						c-1.077,0.419-2.034,0.739-2.649,0.876c-1.218-3.642-2.075-7.354-2.823-11.1h-0.005
						C303.789,51.654,303.272,48.752,302.701,45.839L302.701,45.839z M240.825,44.671c-9.299-2.784-18.728-5.323-28.556-7.496
						c-1.287-0.284-2.576-0.562-3.884-0.834c-11.221-2.349-23.011-4.217-35.755-5.446c-0.897-0.088-1.798-0.171-2.707-0.252
						c9.845-10.377,26.693-12.319,43.485-11.81c12.822,0.392,26.864,0.826,39.308,4.423c4.625,1.337,6.006,1.44,5.488,4.356
						l0.038-0.084c-0.283,0.917-0.574,1.831-0.844,2.752c-1.744,5.845-4.783,12.014-7.278,17.26l-0.333-0.103l-0.575-0.183
						l-0.253-0.081C246.253,46.319,243.546,45.484,240.825,44.671z"/>
					<radialGradient id="SVGID_2_" cx="218.1016" cy="85.4391" r="106.3809" gradientUnits="userSpaceOnUse">
						<stop  offset="0" style="stop-color:#FCEFA2"/>
						<stop  offset="1" style="stop-color:#FFCA62"/>
					</radialGradient>
					<path fill-rule="evenodd" clip-rule="evenodd" fill="url(#SVGID_2_)" d="M354.457,113.546c4.854-1.43,8.86-3.73,11.015-6.162
						c-0.117-0.637-0.229-1.313-0.352-2.013c-2.463,2.496-6.604,5.888-10.559,7.065
						C354.533,112.702,354.499,113.083,354.457,113.546L354.457,113.546z M313.484,110.913c2.022-6.296,4.526-11.074,9.327-13.207
						c10.431-4.636,20.316-0.434,24.211,6.409c1.392,2.452,1.773,7.097,1.71,11.589c0.329-4.815,0.236-9.784-1.108-12.21
						c-3.812-6.852-15.647-11.782-25.776-7.189C317.178,98.42,315.186,104.112,313.484,110.913L313.484,110.913z M151.148,108.34
						c-0.024-0.346-0.047-0.688-0.062-1.031c-29.343,5.499-51.316,3.934-80.354,1.486
						C96.028,113.859,120.501,114.055,151.148,108.34L151.148,108.34z M156.304,104.897c-0.442-14.893,4.86-29.386,10.9-36.719
						c15.176-18.415,51.478-13.313,60.842,10.095c1.856,4.638,4.307,12.446,4.86,19.774c0.3-7.715-1.134-16.221-3.041-21.077
						c-9.187-23.431-50.197-29.337-64.882-10.99C159,73.451,155.44,89.585,156.304,104.897L156.304,104.897z M232.157,107.691
						c-0.098,0.317-0.199,0.631-0.308,0.936c24.608,0.623,44.154,3.087,62.445,6.523
						C275.974,111.462,255.607,108.455,232.157,107.691z"/>
					<radialGradient id="SVGID_3_" cx="280.8131" cy="82.4791" r="30.553" gradientUnits="userSpaceOnUse">
						<stop  offset="0" style="stop-color:#FCEFA2"/>
						<stop  offset="1" style="stop-color:#FFCA62"/>
					</radialGradient>
					<path fill-rule="evenodd" clip-rule="evenodd" fill="url(#SVGID_3_)" d="M250.706,52.589
						c3.683,18.595,4.047,34.768-1.038,51.016c19.307,2.941,38.62,5.881,57.932,8.824c3.976-9.738,6.871-27.873,1.131-42.678
						c-18.181,0.758-42.957-11.124-58.033-17.221C250.703,52.558,250.698,52.562,250.706,52.589z"/>
					<path fill-rule="evenodd" clip-rule="evenodd" fill="#6C2624" d="M44.336,93.672c11.126,0.787,17.133,0.226,26.303,6.433
						c15.889-0.33,28.22-1.859,35.016-2.813c3.825-5.265,7.514-10.931,12.541-15.163C97.284,82.349,65.936,86.749,44.336,93.672z"/>
					<path fill-rule="evenodd" clip-rule="evenodd" fill="#A93825" d="M18.558,100.164c35.61-8.439,70.503-12.923,105.374-17.279
						c9.205-0.567,15.213-0.286,24.176,1.789c5.018-5.072,5.482-10.39,3.88-15.822c-16.112-2.643-25.31-3.437-41.27-0.397
						c-32.489,6.189-65.095,12.853-94.982,21.942C14.908,93.906,16.17,97.116,18.558,100.164z"/>
					<path fill-rule="evenodd" clip-rule="evenodd" fill="#FFFFFF" d="M147.625,79.098l0.183,0.039
						c2.553-3.033,3.316-6.205,2.587-9.966c-6.304-0.977-12.682-1.833-19.063-1.936c-6.784-0.108-13.33,0.683-19.989,1.946
						C79.639,75.192,47.62,81.572,16.668,90.756c0.009,0.46,0.09,1.066,0.225,1.721c30.22-8.813,61.348-15.224,92.186-21.298
						c6.829-1.348,13.541-2.219,20.495-2.193c6.546,0.026,13.079,0.803,19.536,1.707C149.716,73.801,149.281,76.515,147.625,79.098z
						"/>
					<path fill-rule="evenodd" clip-rule="evenodd" fill="#FFFFFF" d="M20.271,98.432c35.419-10.494,69.915-16.779,102.367-20.237
						c1.4-0.132,2.719-0.242,3.986-0.325c-1.483,0.06-3.009,0.15-4.593,0.265l-0.098,0.01l-0.097,0.01
						C87.038,81.001,53.046,88.41,19.153,96.88C19.487,97.404,19.86,97.922,20.271,98.432z"/>
					<radialGradient id="SVGID_4_" cx="171.8677" cy="39.0587" r="36.6448" gradientUnits="userSpaceOnUse">
						<stop  offset="0" style="stop-color:#FCEFA2"/>
						<stop  offset="1" style="stop-color:#FFCA62"/>
					</radialGradient>
					<path fill-rule="evenodd" clip-rule="evenodd" fill="url(#SVGID_4_)" d="M120.259,35.858c3.617,1.61,5.814,3.946,5.697,7.133
						c18.704-9.899,66.088-7.33,97.521,0.78C185.581,33.326,149.647,33.063,120.259,35.858z"/>
					<path fill-rule="evenodd" clip-rule="evenodd" fill="#6C2624" d="M21.921,66.408c25.125-13.76,54.001-22.378,84.692-25.801
						c17.394-1.943,18.686,4.411,20.509,17.692c0.387,2.813-0.488,5.117-2.352,7.049c-4.024,0.27-8.288,0.842-13.191,1.774
						c-29.836,5.684-59.772,11.77-87.613,19.765C19.596,81.699,15.586,69.879,21.921,66.408z"/>
					<radialGradient id="SVGID_5_" cx="67.0303" cy="52.2642" r="36.5732" gradientUnits="userSpaceOnUse">
						<stop  offset="0" style="stop-color:#FCEFA2"/>
						<stop  offset="1" style="stop-color:#FFCA62"/>
					</radialGradient>
					<path fill-rule="evenodd" clip-rule="evenodd" fill="url(#SVGID_5_)" d="M18.522,65.493
						C46.195,50.721,77.174,41.5,110.737,37.755c2.152-0.242,4.085-0.368,5.825-0.383c-35.764,4.039-68.987,13.93-99.064,29.783
						c0.066-0.406,0.144-0.807,0.231-1.206C17.988,65.779,18.252,65.641,18.522,65.493z"/>
					<path fill-rule="evenodd" clip-rule="evenodd" fill="#A93825" d="M23.155,68.584c24.879-13.46,53.454-21.914,83.808-25.316
						c17.207-1.929,16.885,4.689,18.66,17.623c0.233,1.701,0.011,3.208-0.609,4.549c-4.211,0.249-8.664,0.83-13.823,1.811
						C81.478,72.912,51.663,78.973,23.92,86.919C20.165,81.364,17.481,71.655,23.155,68.584z"/>
					<g>
						<path fill-rule="evenodd" clip-rule="evenodd" fill="#6C2624" d="M53.555,61.288l0.903-0.379
							c2.015,4.798,3.022,9.76,3.547,15.005c-0.512,0.106-1.008,0.086-1.479-0.042c-0.534-5.002-1.52-9.755-3.39-14.353
							C53.269,61.431,53.407,61.351,53.555,61.288L53.555,61.288z M55.37,60.532c2.035,4.846,3.066,9.853,3.605,15.149l1.441-0.359
							c-0.54-5.364-1.589-10.432-3.703-15.33C56.265,60.169,55.818,60.35,55.37,60.532L55.37,60.532z M57.631,59.629
							c2.129,4.939,3.197,10.046,3.75,15.451l1.443-0.358c-0.553-5.465-1.637-10.623-3.844-15.609
							C58.53,59.279,58.081,59.454,57.631,59.629L57.631,59.629z M59.907,58.767c0.451-0.167,0.905-0.333,1.355-0.496
							c2.289,5.065,3.402,10.304,3.971,15.86l-1.44,0.354C63.226,68.981,62.119,63.79,59.907,58.767L59.907,58.767z M62.197,57.945
							c0.455-0.16,0.913-0.315,1.367-0.469c2.358,5.13,3.5,10.436,4.078,16.069L66.2,73.896
							C65.62,68.31,64.487,63.039,62.197,57.945L62.197,57.945z M64.506,57.166c2.354,5.157,3.514,10.491,4.104,16.149l1.442-0.343
							c-0.584-5.699-1.753-11.061-4.171-16.247C65.423,56.87,64.965,57.017,64.506,57.166L64.506,57.166z M66.833,56.433
							c2.408,5.209,3.589,10.594,4.187,16.313l1.445-0.334c-0.593-5.752-1.777-11.163-4.245-16.391
							C67.758,56.155,67.295,56.294,66.833,56.433L66.833,56.433z M69.18,55.747c0.466-0.132,0.934-0.26,1.401-0.384
							c2.503,5.263,3.7,10.71,4.298,16.506l-1.446,0.322C72.83,66.425,71.635,60.997,69.18,55.747L69.18,55.747z M71.553,55.109
							c0.47-0.12,0.939-0.241,1.412-0.354c2.526,5.289,3.729,10.766,4.329,16.588l-1.446,0.311
							C75.241,65.851,74.035,60.391,71.553,55.109L71.553,55.109z M73.949,54.523c2.498,5.304,3.708,10.786,4.317,16.618
							c0.484-0.099,0.967-0.2,1.446-0.294c-0.597-5.847-1.803-11.34-4.337-16.645C74.898,54.303,74.423,54.411,73.949,54.523
							L73.949,54.523z M76.368,53.989c2.504,5.316,3.713,10.815,4.317,16.665c0.486-0.095,0.97-0.188,1.451-0.277
							c-0.595-5.855-1.792-11.36-4.324-16.676C77.33,53.794,76.846,53.89,76.368,53.989L76.368,53.989z M78.813,53.513
							c0.487-0.088,0.973-0.173,1.461-0.253c2.507,5.303,3.694,10.796,4.28,16.638c-0.368,0.094-0.762,0.178-1.186,0.254
							l-0.259,0.047C82.508,64.342,81.308,58.836,78.813,53.513L78.813,53.513z M81.286,53.098l0.392-0.059
							c0.398-0.061,0.773-0.086,1.122-0.08c2.366,5.089,3.528,10.353,4.118,15.938c-0.384,0.275-0.853,0.509-1.4,0.709
							C84.922,63.815,83.735,58.367,81.286,53.098L81.286,53.098z M83.956,53.112c2.131,4.77,3.25,9.691,3.856,14.881
							c0.763-1.119,0.867-2.719,0.548-5.043C87.698,58.122,87.084,53.955,83.956,53.112L83.956,53.112z M55.479,75.407
							c-0.519-4.562-1.438-8.913-3.103-13.131C50.262,65.314,52.025,73.202,55.479,75.407z"/>
					</g>
					<path fill-rule="evenodd" clip-rule="evenodd" fill="#6C2624" d="M94.855,46.144c4.648-0.908,9.406,3.135,11.073,9.182
						c-0.771-6.45,2.414-12.229,7.47-13.213c5.371-1.043,10.822,3.726,12.175,10.648c1.351,6.926-1.908,13.386-7.278,14.43
						c-5.038,0.979-10.151-3.16-11.878-9.39c0.756,6.26-2.139,11.834-6.809,12.741c-4.965,0.97-10.058-3.711-11.373-10.448
						C86.926,53.358,89.888,47.111,94.855,46.144z"/>
					<g>
						<path fill-rule="evenodd" clip-rule="evenodd" fill="#F4CF95" d="M95.66,48.023c4.466-0.87,9.042,3.331,10.219,9.381
							c1.18,6.047-1.486,11.658-5.949,12.529c-4.461,0.87-9.039-3.33-10.219-9.382C88.536,54.504,91.199,48.892,95.66,48.023
							L95.66,48.023z M95.046,49.164c-3.959,0.771-6.324,5.747-5.281,11.113c1.046,5.367,5.107,9.093,9.067,8.319
							c3.957-0.769,6.321-5.747,5.277-11.111C103.063,52.118,99.005,48.393,95.046,49.164z"/>
					</g>
					<path fill-rule="evenodd" clip-rule="evenodd" fill="#FFFFFF" d="M94.674,49.217c3.738-0.738,7.607,3.012,8.637,8.382
						c1.029,5.368-1.164,10.321-4.906,11.06c-3.739,0.743-7.61-3.014-8.64-8.381C88.735,54.909,90.934,49.958,94.674,49.217
						L94.674,49.217z M91.295,54.409c-0.459,1.826,1.066,3.212,2.965,3.481c4.182,0.586,3.874,2.132,5.407,3.777
						c3.411,3.654,4.1-1.796,3.324-4.443c-0.823-2.811-2.591-5.131-5.308-6.5C95.54,49.647,92.258,50.586,91.295,54.409z"/>
					<g>
						<path fill-rule="evenodd" clip-rule="evenodd" fill="#F4CF95" d="M114.251,44.041c4.827-0.937,9.728,3.343,10.939,9.56
							c1.215,6.218-1.712,12.019-6.541,12.957c-4.829,0.938-9.728-3.344-10.944-9.56C106.494,50.779,109.422,44.98,114.251,44.041
							L114.251,44.041z M113.574,45.221c-4.284,0.834-6.881,5.979-5.804,11.495c1.076,5.513,5.422,9.312,9.704,8.478
							c4.281-0.831,6.88-5.978,5.805-11.492C122.202,48.187,117.855,44.39,113.574,45.221z"/>
					</g>
					<path fill-rule="evenodd" clip-rule="evenodd" fill="#FFFFFF" d="M112.811,45.333c4.044-0.799,8.186,3.028,9.249,8.545
						c1.059,5.518-1.359,10.639-5.405,11.436c-4.043,0.798-8.183-3.028-9.246-8.547C106.349,51.251,108.764,46.129,112.811,45.333
						L112.811,45.333z M108.611,51.158c-0.513,1.883,1.119,3.297,3.166,3.555c4.511,0.563,4.16,2.156,5.806,3.837
						c3.644,3.73,4.44-1.889,3.629-4.605c-0.866-2.887-2.75-5.262-5.667-6.642C113.242,46.213,109.686,47.214,108.611,51.158z"/>
					<path fill-rule="evenodd" clip-rule="evenodd" fill="#6C2624" d="M24.656,65.739c4.026-1.14,8.527,2.192,10.293,7.502
						c-1.595-5.795,0.731-11.498,5.23-12.769c4.524-1.281,9.538,2.415,11.192,8.249c1.654,5.835-0.672,11.6-5.199,12.881
						c-4.362,1.234-9.179-2.155-11-7.626c1.555,5.64-0.534,11.147-4.698,12.324c-4.184,1.185-8.88-2.459-10.486-8.134
						C18.381,72.489,20.472,66.925,24.656,65.739z"/>
					<g>
						<path fill-rule="evenodd" clip-rule="evenodd" fill="#F4CF95" d="M25.481,67.292c3.762-1.064,7.981,2.207,9.425,7.302
							c1.444,5.096-0.437,10.092-4.196,11.16c-3.764,1.063-7.983-2.205-9.425-7.303C19.842,73.353,21.72,68.355,25.481,67.292
							L25.481,67.292z M25.035,68.315c-3.335,0.944-5.002,5.376-3.723,9.895c1.28,4.524,5.023,7.426,8.359,6.479
							c3.335-0.944,5.003-5.375,3.724-9.897C32.116,70.272,28.369,67.37,25.035,68.315z"/>
					</g>
					<path fill-rule="evenodd" clip-rule="evenodd" fill="#FFFFFF" d="M24.731,68.359c3.135-0.914,6.687,2.012,7.929,6.539
						c1.244,4.526-0.29,8.938-3.425,9.853c-3.135,0.917-6.684-2.014-7.929-6.537C20.062,73.688,21.599,69.275,24.731,68.359
						L24.731,68.359z M21.833,73.128c-0.26,1.597,1.143,2.678,2.788,2.769c3.624,0.206,3.473,1.548,4.906,2.849
						c3.181,2.884,3.381-1.832,2.527-4.041c-0.91-2.351-2.588-4.212-5.016-5.188C25.129,68.747,22.383,69.787,21.833,73.128z"/>
					<g>
						<path fill-rule="evenodd" clip-rule="evenodd" fill="#F4CF95" d="M41.047,62.063c4.068-1.149,8.571,2.166,10.057,7.403
							c1.486,5.238-0.607,10.417-4.678,11.568c-4.064,1.149-8.569-2.167-10.052-7.406C34.886,68.39,36.978,63.211,41.047,62.063
							L41.047,62.063z M40.55,63.124c-3.606,1.019-5.463,5.612-4.148,10.258c1.32,4.646,5.315,7.589,8.923,6.567
							c3.609-1.016,5.466-5.614,4.149-10.258C48.154,65.044,44.161,62.102,40.55,63.124z"/>
					</g>
					<path fill-rule="evenodd" clip-rule="evenodd" fill="#FFFFFF" d="M39.958,63.208c3.503-1.005,7.401,1.949,8.698,6.599
						c1.3,4.649-0.486,9.232-3.991,10.237c-3.505,1.006-7.401-1.949-8.702-6.599C34.665,68.796,36.454,64.212,39.958,63.208
						L39.958,63.208z M37.222,67.913c-0.307,1.65,1.194,2.749,2.968,2.819c3.902,0.162,3.717,1.552,5.246,2.87
						c3.388,2.937,3.67-1.935,2.779-4.201c-0.948-2.414-2.731-4.311-5.333-5.284C40.833,63.35,37.859,64.46,37.222,67.913z"/>
					<g>
						<path fill-rule="evenodd" clip-rule="evenodd" fill="#6C2624" d="M57.98,98.197c1.26-0.588,2.971,0.416,3.824,2.238
							c0.851,1.823,0.521,3.78-0.737,4.368c-1.259,0.587-2.97-0.415-3.821-2.236C56.394,100.741,56.723,98.785,57.98,98.197
							L57.98,98.197z M116.977,90.019c1.683-0.676,3.839,0.751,4.82,3.188c0.979,2.435,0.41,4.958-1.271,5.634
							c-1.682,0.678-3.837-0.753-4.816-3.186C114.728,93.217,115.298,90.693,116.977,90.019z"/>
					</g>
					<g>
						<path fill-rule="evenodd" clip-rule="evenodd" fill="#F4CF95" d="M56.697,97.443c1.258-0.588,2.968,0.411,3.824,2.238
							c0.851,1.82,0.521,3.779-0.738,4.367c-1.258,0.59-2.971-0.414-3.822-2.238C55.109,99.985,55.437,98.03,56.697,97.443
							L56.697,97.443z M115.693,89.263c1.683-0.676,3.837,0.749,4.818,3.186c0.981,2.436,0.412,4.961-1.269,5.639
							c-1.681,0.673-3.839-0.753-4.818-3.189C113.441,92.462,114.014,89.94,115.693,89.263z"/>
					</g>
					<g>
						<path fill-rule="evenodd" clip-rule="evenodd" fill="#D9A86D" d="M324.053,118.168c0.85,0.139,1.366,1.117,1.156,2.197
							c-0.214,1.077-1.076,1.837-1.921,1.702c-0.848-0.135-1.37-1.117-1.156-2.193C322.344,118.797,323.206,118.032,324.053,118.168
							L324.053,118.168z M325.349,111.579c-0.059-0.008-0.119-0.013-0.177-0.021c-0.295,0.038-0.585,0.099-0.869,0.185
							c-0.846,0.58-1.618,1.325-2.287,2.198c0.606-0.33,1.256-0.533,1.912-0.593l-0.417,3.331c-0.601,0.131-1.167,0.487-1.626,1.017
							l-1.408-1.101c-0.311,0.747-0.563,1.538-0.739,2.374l1.222,0.585c-0.007,0.042-0.011,0.088-0.028,0.13
							c-0.146,0.756-0.088,1.492,0.127,2.118l-1.502,1.505c0.206,1.571,0.716,3.017,1.464,4.223
							c0.668,0.556,1.438,0.962,2.276,1.177c3.254-0.265,6.289-3.354,7.108-7.515C331.33,116.477,329.069,112.171,325.349,111.579
							L325.349,111.579z M326.007,113.678l-0.881,3.257c0.524,0.311,0.925,0.841,1.151,1.488l2.658-0.921
							C328.514,115.73,327.458,114.307,326.007,113.678L326.007,113.678z M329.107,120.117c-0.031,0.283-0.069,0.563-0.123,0.849
							c-0.349,1.744-1.186,3.254-2.282,4.312l-1.222-2.765c0.441-0.52,0.773-1.196,0.924-1.958c0.008-0.033,0.013-0.072,0.021-0.104
							L329.107,120.117L329.107,120.117z M324.701,126.585c-0.755,0.291-1.555,0.396-2.353,0.27
							c-0.799-0.13-1.518-0.475-2.118-0.987l1.895-2.62c0.258,0.169,0.551,0.288,0.866,0.337c0.311,0.05,0.626,0.029,0.935-0.047
							L324.701,126.585z"/>
					</g>
					<g>
						<path fill-rule="evenodd" clip-rule="evenodd" fill="#D9A86D" d="M188.427,98.714c1.615-0.13,3.06,1.398,3.223,3.415
							c0.165,2.019-1.015,3.755-2.633,3.886c-1.616,0.132-3.062-1.397-3.226-3.413C185.629,100.586,186.805,98.847,188.427,98.714
							L188.427,98.714z M187.421,86.383c-0.109,0.011-0.221,0.019-0.328,0.031c-0.518,0.201-1.018,0.437-1.498,0.712
							c-1.24,1.406-2.272,3.075-3.046,4.93c0.943-0.853,2.017-1.506,3.188-1.895l0.945,6.127c-1.033,0.494-1.886,1.394-2.451,2.534
							l-3.125-1.349c-0.193,1.47-0.244,3.001-0.14,4.565l2.531,0.504c0.006,0.082,0.008,0.161,0.014,0.248
							c0.119,1.419,0.593,2.705,1.301,3.725l-1.961,3.344c1.181,2.726,2.845,5.077,4.818,6.902c1.504,0.705,3.105,1.096,4.752,1.105
							c5.807-1.9,9.759-8.748,9.123-16.539C200.829,92.499,194.505,85.808,187.421,86.383L187.421,86.383z M189.7,89.84
							c2.965,0.485,5.609,2.559,7.291,5.544l-4.381,2.806c-0.741-1.055-1.741-1.819-2.851-2.148L189.7,89.84L189.7,89.84z
							 M198.632,99.981c0.094,0.514,0.162,1.033,0.206,1.562c0.265,3.274-0.495,6.336-1.952,8.711l-3.649-4.403
							c0.542-1.124,0.806-2.477,0.692-3.906c-0.005-0.065-0.013-0.131-0.019-0.194L198.632,99.981L198.632,99.981z M193.902,113.46
							c-1.233,0.853-2.64,1.391-4.157,1.513c-1.525,0.123-3.004-0.18-4.362-0.83l2.116-5.512c0.556,0.19,1.145,0.271,1.748,0.222
							c0.598-0.047,1.16-0.217,1.674-0.492L193.902,113.46z"/>
					</g>
				</g>
				<g>
					<path fill-rule="evenodd" clip-rule="evenodd" fill="#D9A86D" d="M299.252,57.422c6.444-0.889,21.612-6.29,28.059-12.905
						c0.357,0.315,0.895,0.821,1.416,1.413c-7.163,8.329-21.04,12.773-28.87,13.278C299.653,58.612,299.452,58.017,299.252,57.422z"
						/>
					<g>
						<path fill-rule="evenodd" clip-rule="evenodd" fill="#F4CF95" d="M368.01,12.69c-15.701-1.624-36.85,7.921-45.389,15.503
							l-2.186,21.59c5.189,2.255,10.376,4.514,15.559,6.771c13.662-7.883,38.603-17.502,45.021-13.774
							C378.724,33.929,373.37,21.37,368.01,12.69L368.01,12.69z M328.661,39.42c2.285,0,4.143,1.858,4.143,4.143
							c0,2.288-1.857,4.146-4.143,4.146c-2.292,0-4.149-1.858-4.149-4.146C324.511,41.278,326.369,39.42,328.661,39.42z"/>
					</g>
					<path fill-rule="evenodd" clip-rule="evenodd" fill="#A93825" d="M303.541,58.752c-0.185-0.704-0.361-1.403-0.534-2.105
						c0.547-0.142,1.113-0.296,1.698-0.464c0.156,0.75,0.319,1.498,0.49,2.247C304.633,58.551,304.082,58.658,303.541,58.752z"/>
				</g>
			</g>
		</g>
		<g>
			<path fill="#FFC830" d="M357.305,13.081c-7.446,1.114-15.167,3.774-21.74,6.949l6.506,33.278
				c7.784-3.888,17.228-7.702,25.044-9.77L357.305,13.081z"/>
			<path fill="#005597" d="M322.622,28.192l-2.186,21.591c5.189,2.251,10.376,4.511,15.559,6.77c1.845-1.064,3.9-2.156,6.076-3.245
				l-6.506-33.278C330.215,22.613,325.625,25.519,322.622,28.192z M328.661,47.705c-2.292,0-4.149-1.857-4.149-4.143
				c0-2.288,1.857-4.145,4.149-4.145c2.285,0,4.143,1.857,4.143,4.145C332.803,45.848,330.946,47.705,328.661,47.705z"/>
			<path fill="#005597" d="M381.015,42.778c-2.291-8.854-7.646-21.409-13.005-30.093c-3.374-0.349-7.005-0.157-10.705,0.396
				l9.81,30.458C373.352,41.891,378.551,41.346,381.015,42.778z"/>
		</g>
		<g>
			<g>
				<g>
					<path fill="#FFC830" d="M360.895,35.687l-3.01-4.198l-4.188,1.43l1.419,4.117l5.182-0.136l-14.174,4.864l4.205-3.087
						l-1.398-4.118l-4.157,1.424l0.142,5.19l-4.867-14.186l3.079,4.212l4.181-1.418l-1.454-4.262l-5.182,0.248l14.146-4.856
						l-4.202,3.011l1.453,4.234l4.225-1.431l-0.253-5.186L360.895,35.687z"/>
					<path fill="#CE2026" d="M352.069,28.158l-1.453-4.234l4.202-3.011l-14.146,4.856l5.182-0.248l1.454,4.262l-4.181,1.418
						l-3.079-4.212l4.867,14.186l-0.142-5.19l4.157-1.424l1.398,4.118l-4.205,3.087l14.174-4.864l-5.182,0.136l-1.419-4.117
						l4.188-1.43l3.01,4.198l-4.854-14.146l0.253,5.186L352.069,28.158z M357.425,30.293l-5.356,1.832l1.838,5.342l-2.393,0.821
						l-1.828-5.346l-5.345,1.831l-0.816-2.387l5.347-1.83l-1.841-5.343l2.383-0.823l1.841,5.346l5.346-1.833L357.425,30.293z"/>
					<polygon fill="#FFFFFF" points="349.414,24.39 347.031,25.213 348.872,30.556 343.525,32.386 344.341,34.774 349.686,32.943 
						351.514,38.289 353.907,37.468 352.069,32.126 357.425,30.293 356.6,27.904 351.254,29.736 					"/>
				</g>
			</g>
		</g>
		<path fill-rule="evenodd" clip-rule="evenodd" fill="#FFE1BA" d="M298.467,56.181c0.479,0.995,0.959,1.993,1.434,2.995
			c8.338-8.28,21.828-11.92,28.957-13.183c-0.315-0.394-1.037-1.149-1.432-1.44C317.733,45.431,306.633,49.389,298.467,56.181z"/>
	</g>
</g>
</svg>
